<?xml version="1.0" encoding="utf-8"?>
<!-- Generator: Adobe Illustrator 22.0.1, SVG Export Plug-In . SVG Version: 6.00 Build 0)  -->
<svg version="1.1" id="Layer_1" xmlns="http://www.w3.org/2000/svg" xmlns:xlink="http://www.w3.org/1999/xlink" x="0px" y="0px"
	 viewBox="0 0 555.4 269" style="enable-background:new 0 0 555.4 269;" xml:space="preserve">
<style type="text/css">
	.st0{fill:#FFFFFF;stroke:#000000;stroke-linecap:round;stroke-linejoin:round;stroke-miterlimit:10;}
	.st1{font-family:'PTMono-Regular';}
	.st2{font-size:14px;}
	.st3{fill:none;stroke:#000000;stroke-linecap:round;stroke-linejoin:round;stroke-miterlimit:10;}
</style>
<rect x="181.8" y="17.8" class="st0" width="89" height="26.7"/>
<text transform="matrix(1 0 0 1 192.9586 35.1818)" class="st1 st2">Document</text>
<rect x="49.3" y="103.3" class="st0" width="143" height="26.7"/>
<text transform="matrix(1 0 0 1 58.0591 120.6818)" class="st1 st2">Element: &lt;head&gt;</text>
<rect x="30.8" y="146.8" class="st0" width="151" height="26.7"/>
<text transform="matrix(1 0 0 1 39.359 164.1818)" class="st1 st2">Element: &lt;title&gt;</text>
<rect x="13.8" y="189.8" class="st0" width="165" height="26.7"/>
<text transform="matrix(1 0 0 1 20.9595 207.1818)" class="st1 st2">Text: “Page title”</text>
<rect x="259.8" y="103.8" class="st0" width="143" height="26.7"/>
<text transform="matrix(1 0 0 1 268.5591 121.1818)" class="st1 st2">Element: &lt;body&gt;</text>
<rect x="206.8" y="146.8" class="st0" width="117" height="26.7"/>
<text transform="matrix(1 0 0 1 215.1588 164.1818)" class="st1 st2">Element: &lt;a&gt;</text>
<rect x="342.8" y="146.8" class="st0" width="127" height="26.7"/>
<text transform="matrix(1 0 0 1 351.959 164.1818)" class="st1 st2">Element: &lt;h1&gt;</text>
<rect x="130.8" y="60.8" class="st0" width="191" height="26.7"/>
<text transform="matrix(1 0 0 1 142.5596 78.1818)" class="st1 st2">Root element: &lt;html&gt;</text>
<path class="st0" d="M116.7,46.7"/>
<line class="st3" x1="226.8" y1="44.5" x2="226.8" y2="60.5"/>
<line class="st3" x1="120.8" y1="95.7" x2="120.8" y2="103.5"/>
<line class="st3" x1="331.8" y1="95.7" x2="331.8" y2="103.5"/>
<line class="st3" x1="226.8" y1="88" x2="226.8" y2="95.7"/>
<line class="st3" x1="120.8" y1="95.7" x2="331.8" y2="95.7"/>
<line class="st3" x1="255.8" y1="138.7" x2="255.8" y2="146.5"/>
<line class="st3" x1="405.8" y1="138.7" x2="405.8" y2="146.5"/>
<line class="st3" x1="332.8" y1="131" x2="332.8" y2="138.7"/>
<line class="st3" x1="110.8" y1="130.5" x2="110.8" y2="146.5"/>
<line class="st3" x1="100.8" y1="173.5" x2="100.8" y2="189.5"/>
<rect x="356.8" y="189.8" class="st0" width="179" height="26.7"/>
<text transform="matrix(1 0 0 1 362.5596 207.1818)" class="st1 st2">Text: “Page heading”</text>
<line class="st3" x1="405.8" y1="173.5" x2="405.8" y2="189.5"/>
<line class="st3" x1="255.8" y1="138.7" x2="405.8" y2="138.7"/>
<rect x="191.8" y="228.8" class="st0" width="155" height="26.7"/>
<text transform="matrix(1 0 0 1 199.1592 246.1818)" class="st1 st2">Attribute: “href”</text>
<rect x="200.3" y="190.3" class="st0" width="127" height="26.7"/>
<text transform="matrix(1 0 0 1 213.6588 207.6818)" class="st1 st2">Text: “link”</text>
<line class="st3" x1="222.8" y1="180.7" x2="222.8" y2="190.5"/>
<line class="st3" x1="338.8" y1="180.5" x2="338.8" y2="228.5"/>
<line class="st3" x1="255.8" y1="173.5" x2="255.8" y2="180.5"/>
<line class="st3" x1="222.8" y1="180.5" x2="338.8" y2="180.7"/>
</svg>
